<svg xmlns="http://www.w3.org/2000/svg" viewBox="0 0 1200 800" role="img" aria-labelledby="title desc">
  <title id="title">Property image unavailable</title>
  <desc id="desc">Fallback illustration for a home listing.</desc>
  <defs>
    <linearGradient id="bg" x1="0%" y1="0%" x2="100%" y2="100%">
      <stop offset="0%" stop-color="#f8fafc"/>
      <stop offset="100%" stop-color="#dbe7f2"/>
    </linearGradient>
    <linearGradient id="accent" x1="0%" y1="0%" x2="100%" y2="100%">
      <stop offset="0%" stop-color="#11324d"/>
      <stop offset="100%" stop-color="#355c7d"/>
    </linearGradient>
  </defs>
  <rect width="1200" height="800" fill="url(#bg)"/>
  <circle cx="980" cy="120" r="90" fill="#ffffff" opacity="0.75"/>
  <circle cx="200" cy="120" r="60" fill="#d4dee7" opacity="0.7"/>
  <rect x="80" y="550" width="1040" height="150" rx="30" fill="#ffffff" opacity="0.8"/>
  <path d="M200 500 L420 300 L560 405 L760 220 L1000 500" fill="none" stroke="url(#accent)" stroke-width="32" stroke-linecap="round" stroke-linejoin="round"/>
  <path d="M260 520 V420 L470 260 L690 420 V520" fill="#ffffff" stroke="#11324d" stroke-width="24" stroke-linejoin="round"/>
  <path d="M640 520 V360 L820 230 L1000 360 V520" fill="#edf3f8" stroke="#11324d" stroke-width="24" stroke-linejoin="round"/>
  <rect x="340" y="430" width="90" height="90" rx="16" fill="#dbe7f2"/>
  <rect x="490" y="360" width="90" height="160" rx="18" fill="#355c7d"/>
  <rect x="730" y="390" width="80" height="80" rx="16" fill="#dbe7f2"/>
  <rect x="855" y="390" width="80" height="80" rx="16" fill="#dbe7f2"/>
  <text x="600" y="645" text-anchor="middle" font-family="Arial, sans-serif" font-size="42" font-weight="700" fill="#11324d">
    HomeHive
  </text>
  <text x="600" y="695" text-anchor="middle" font-family="Arial, sans-serif" font-size="26" fill="#4b6478">
    Property image unavailable
  </text>
</svg>
